# xmcd
#
# Track frame offsets:
#	225
#	16930
#	28412
#	45040
#	59440
#	78700
#	92200
#	104010
#	116555
#	131487
#	160655
#	176082
#
# Disc length: 2569 seconds
#
# Revision: 0
# Processed by: cddbd v1.4PL0 Copyright (c) Steve Scherf et al.
# Submitted via: audiograbber 1.80.04
#
DISCID=9c0a060c
DTITLE=Various Artist - Country Music Hall Of Fame 20th Anniversary Collection (Vol 2 
DTITLE=of 3)
DYEAR=1900
DGENRE=
TTITLE0=Kenny Rogers - Lucille
TTITLE1=Crystal Gayle - Don't It Make My Brown Eyes Blue
TTITLE2=Ronnie Milsap - It Was Almost Like A Song
TTITLE3=Emmylou Harris - Two More Bottles Of Wine
TTITLE4=Waylon Jennings - I've Always Been Crazy
TTITLE5=Dolly Parton - Here You Come Again
TTITLE6=John Conlee - Back Side Of Thirty
TTITLE7=Mel Tillis - Coca Cola Cowboy
TTITLE8=Cristy Lane - One Day At  A Time
TTITLE9=Alabama - My Home's In Alabama
TTITLE10=David Frizzell and Shelly West - You're The Reason God Made Oklahoma
TTITLE11=Oak Ridge Boys - Elvira
EXTD=
EXTT0=
EXTT1=
EXTT2=
EXTT3=
EXTT4=
EXTT5=
EXTT6=
EXTT7=
EXTT8=
EXTT9=
EXTT10=
EXTT11=
PLAYORDER=
